<svg xmlns="http://www.w3.org/2000/svg" viewBox="0 0 92.42 91.71"><defs><style>.bbe39b18-2d72-4c29-abf9-6b59c3ceda54{fill:#838bc5;}.baf90b26-7925-40bf-8e31-f3f767720f55{fill:#fbb03b;}.b7eaa24d-8fcc-45e7-956b-fc2bb43ccc6e{fill:#b28b8c;}.a249d2e9-71a1-4a02-a2f3-90e632e1fb32{fill:none;stroke:#000;stroke-miterlimit:10;stroke-width:0.45px;}.ecba3a27-1fb0-4c80-b6af-a813c2eff670{fill:#ba9bc9;}.ac0f99d5-14d7-4a76-869e-76d3dfc2b029{fill:#36404c;}.fd614946-4934-4229-b4a7-ba5ccf83ba9a{fill:#00bcbc;}</style></defs><title>Asset 3</title><g id="ba85c185-fdc5-4dd1-a123-f2927d41aada" data-name="Layer 2"><g id="be26f59d-4f9f-4feb-b12f-0f83a4a2bbd6" data-name="Owl"><path class="bbe39b18-2d72-4c29-abf9-6b59c3ceda54" d="M80.4,62.38l-6,6.89L79.09,81c-.91-.35-2.18-.86-3.67-1.57-4-1.86-4.63-2.75-8.72-4.81-3.24-1.65-4.87-2.47-6-2.53-4.1-.21-5.48,3.12-10.1,4.13a14,14,0,0,1-8.72-1.14l-2-.13-4.09-.25-9-.55c-.73-.41-1.39-.81-2-1.19h0c-5.11-3.24-6.07-5.29-5.8-6.61A2.23,2.23,0,0,1,20,65a17.26,17.26,0,0,1,2.27-1.27,34,34,0,0,0,3.4-1.94l.4-.27-.86-2.72a15.12,15.12,0,0,0-1.3-2.18c-5.52-7.76-16.6-8.14-16.6-8.14-.23-4.82,8.61-9,8.61-9l-1-.44L.16,41.61l8.26-7.44H2.91L8,27.85c12.39,12.39,17,2.75,17,2.75L21,33.81,10.7,27.87c3,1.62,7.36,1.51,11.33.88a16.38,16.38,0,0,0,9.56-2.51A55.3,55.3,0,0,1,22,28.75,38.48,38.48,0,0,1,8.42,25.46,57.8,57.8,0,0,1,.16,21.19c5.51-3.44,23.18,5,23.18,5C19,19.58,6.13,19.81,6.13,19.81c1.74-1.57,5.12-2.24,8.63-2.47a20.43,20.43,0,0,0,11.79.41,68.68,68.68,0,0,0-11.79-.41,12.9,12.9,0,0,1-6.11-3.95C7.1,11.27,11.36,11,14.86,11.07c1.16.13,2.52.22,4.08.25,0,0-1.9-.2-4.08-.25-6.43-.69-7.36-2.5-7.36-2.5H21v0c.47.74,15.3,24.16,35.92,31.2A44.07,44.07,0,0,0,58.66,50.1a44.64,44.64,0,0,0,6.67,13.77,128.4,128.4,0,0,1-3.54-13.49q3.34.33,7.21.87a58.31,58.31,0,0,0,6.83,5l.72.44c4.46,2.68,6.27,2.86,8.31,5.07Z"/><path class="baf90b26-7925-40bf-8e31-f3f767720f55" d="M89.21,68.66c-.65-1.07-1.14-1.92-1.52-2.61l0,0-2.79-4.52-4.46.61-6,6.89,4.7,11.77.06,0,4.54,1.44c1.08.27,2.06.48,2.89.63l5.82-9.16C91.65,72.57,90.52,70.83,89.21,68.66Zm-4.47,3.65-2.07.5-2.25-2.32,3-3,2.12.69.46,2Z"/><path class="baf90b26-7925-40bf-8e31-f3f767720f55" d="M57,39.79c-20.62-7-35.45-30.46-35.92-31.2A92.58,92.58,0,0,0,41.24,26a91.55,91.55,0,0,0,15.83,8A43.45,43.45,0,0,0,57,39.79Z"/><path class="b7eaa24d-8fcc-45e7-956b-fc2bb43ccc6e" d="M65.33,63.87A44.64,44.64,0,0,1,58.66,50.1,44.07,44.07,0,0,1,57,39.79a43.45,43.45,0,0,1,.1-5.75,91.55,91.55,0,0,1-15.83-8A92.58,92.58,0,0,1,21.05,8.59v0A123,123,0,0,0,39.63,22.34a121.77,121.77,0,0,0,12,6.38C54.36,30,57,31.05,59.36,32c.24,3.91.67,8.13,1.38,12.62.31,2,.67,3.91,1,5.78A130.91,130.91,0,0,0,65.33,63.87Z"/><path class="a249d2e9-71a1-4a02-a2f3-90e632e1fb32" d="M31.59,26.24h0"/><path class="a249d2e9-71a1-4a02-a2f3-90e632e1fb32" d="M10.26,27.61l.44.26Z"/><path class="baf90b26-7925-40bf-8e31-f3f767720f55" d="M22.88,42.53a31.93,31.93,0,0,1-3.59-1.29,31,31,0,0,1-3.41-1.71,30.13,30.13,0,0,1,3.59,1.3A30.09,30.09,0,0,1,22.88,42.53Z"/><path class="baf90b26-7925-40bf-8e31-f3f767720f55" d="M34.35,34.73c-1.46,1.07-2.91,2.16-4.4,3.21S27,40.06,25.52,41.09l-.1.07-.11-.06q-3.81-2-7.57-4c-2.52-1.35-5-2.73-7.51-4.14h.06L8.42,34.17l1.8-1.33,0,0,0,0c2.56,1.27,5.11,2.56,7.63,3.89s5.06,2.66,7.58,4h-.21c1.49-1,3-2,4.51-3S32.83,35.72,34.35,34.73Z"/><path class="baf90b26-7925-40bf-8e31-f3f767720f55" d="M26.78,63.87A3.45,3.45,0,0,1,26,61.54a3.1,3.1,0,0,1,.59,1.1A3.33,3.33,0,0,1,26.78,63.87Z"/><path class="ecba3a27-1fb0-4c80-b6af-a813c2eff670" d="M26,61.54l-.4.27a34,34,0,0,1-3.4,1.94L11.64,59.51S3.83,49.42,9.8,55.38s14.07,1.26,14.07,1.26a15.12,15.12,0,0,1,1.3,2.18Z"/><path class="baf90b26-7925-40bf-8e31-f3f767720f55" d="M25.4,65a6.31,6.31,0,0,1-1.67-.43,6.18,6.18,0,0,1-1.5-.84,6.6,6.6,0,0,1,1.67.42A6.22,6.22,0,0,1,25.4,65Z"/><path class="ecba3a27-1fb0-4c80-b6af-a813c2eff670" d="M10.07,77.33,13.93,74,3.6,77.33l6.46-4.26L5.67,74.19l2.89-2C3.7,69.94.29,64.1.16,63.88,3.39,68,20,65,20,65a2.23,2.23,0,0,0-1,1.37c-.27,1.32.69,3.37,5.8,6.61C18.56,73.88,10.36,77.21,10.07,77.33Z"/><path class="baf90b26-7925-40bf-8e31-f3f767720f55" d="M8.56,72.19c.73.14,1.4.35,2.1.48s1.39.24,2.12.38a4.72,4.72,0,0,1-2.21.06A5.12,5.12,0,0,1,8.56,72.19Z"/><line class="a249d2e9-71a1-4a02-a2f3-90e632e1fb32" x1="0.16" y1="63.88" x2="0.16" y2="63.87"/><path class="baf90b26-7925-40bf-8e31-f3f767720f55" d="M24.78,73a8.22,8.22,0,0,1,2.5-.44,5.17,5.17,0,0,1,2.48.51A20.64,20.64,0,0,0,27.28,73C26.46,73,25.64,73.06,24.78,73Z"/><path class="baf90b26-7925-40bf-8e31-f3f767720f55" d="M13.93,68.47a22.67,22.67,0,0,1-2.56,2,22.68,22.68,0,0,1-2.81,1.68,22.57,22.57,0,0,1,2.55-2A22.8,22.8,0,0,1,13.93,68.47Z"/><path class="a249d2e9-71a1-4a02-a2f3-90e632e1fb32" d="M10.07,77.33h0"/><path class="ecba3a27-1fb0-4c80-b6af-a813c2eff670" d="M92.4,13.62l-3.67,9.63v6.2l-3.44-3.9L82.76,29l2.53,7.23L75.88,46.66l.67,10-.72-.44a58.31,58.31,0,0,1-6.83-5q-3.87-.54-7.21-.87c-.38-1.87-.74-3.79-1-5.78C60,40.11,59.6,35.89,59.36,32c-2.41-.93-5-2-7.72-3.26l2.42-2.36c.82.33,1.68.68,2.54,1a35.54,35.54,0,0,0,5.88,1.91,26.62,26.62,0,0,0-9.69-9.09,23.71,23.71,0,0,0-6-2.39l8.93-5.49L51,5.59l11,6.78c-.21-.34-.4-.66-.58-1-4.71-2.29-9.17-9.59-9.31-9.82L66,10.64,57.29,0,68.93,6.91A20.18,20.18,0,0,1,66,0s6.76,4.88,10.63,7.15Q76.83,3.58,77,0l7.19,8.51c.08-2.39.17-6,.1-7.62C85.58,3.91,92.4,13.62,92.4,13.62Z"/><path class="ac0f99d5-14d7-4a76-869e-76d3dfc2b029" d="M84.23,8.51a3.28,3.28,0,0,1-.08,2.36A2.94,2.94,0,0,1,84,9.68,3.11,3.11,0,0,1,84.23,8.51Z"/><path class="b7eaa24d-8fcc-45e7-956b-fc2bb43ccc6e" d="M76.8,60.43a3,3,0,0,1-.24-3.73,8.59,8.59,0,0,0-.08,1.88A8.87,8.87,0,0,0,76.8,60.43Z"/><path class="ac0f99d5-14d7-4a76-869e-76d3dfc2b029" d="M84.52,8.86a.31.31,0,0,1-.32,0,.29.29,0,0,1,0-.32.29.29,0,0,1,.31,0A.31.31,0,0,1,84.52,8.86Z"/><path class="ac0f99d5-14d7-4a76-869e-76d3dfc2b029" d="M76.65,7.15a1.34,1.34,0,0,1,.19.72,1.25,1.25,0,0,1-.27.7,1.26,1.26,0,0,1,.08-1.42Z"/><path class="ac0f99d5-14d7-4a76-869e-76d3dfc2b029" d="M79.09,8.3a1.22,1.22,0,0,1-.71,0A3.64,3.64,0,0,1,77.73,8a3.54,3.54,0,0,1-1.08-.86,4.62,4.62,0,0,1,1.29.47c.19.11.39.21.57.33S78.88,8.19,79.09,8.3Z"/><path class="ac0f99d5-14d7-4a76-869e-76d3dfc2b029" d="M68.93,6.91l1.75,2.42c.58.81,1.14,1.62,1.74,2.42,1.14,1.62,2.34,3.2,3.47,4.85A40.86,40.86,0,0,1,72.06,12,36.5,36.5,0,0,1,68.93,6.91Z"/><path class="ac0f99d5-14d7-4a76-869e-76d3dfc2b029" d="M66,10.64a12.46,12.46,0,0,0,1.86,3.2,25.14,25.14,0,0,0,2.47,2.79c.85.9,1.77,1.74,2.7,2.57s1.88,1.65,2.84,2.45a29.79,29.79,0,0,1-3.06-2.18A33.64,33.64,0,0,1,70,16.94a21.74,21.74,0,0,1-2.43-2.89A9.82,9.82,0,0,1,66,10.64Z"/><path class="ac0f99d5-14d7-4a76-869e-76d3dfc2b029" d="M61.45,11.4c.62.1,1.17.29,1.74.37a13.27,13.27,0,0,0,1.74.24,2.88,2.88,0,0,1-1.83.2A3.56,3.56,0,0,1,61.45,11.4Z"/><path class="ac0f99d5-14d7-4a76-869e-76d3dfc2b029" d="M71.18,23.66a11.7,11.7,0,0,1-2.89-2.26,31.57,31.57,0,0,1-2.39-2.8A44.58,44.58,0,0,1,62,12.37c1.41,2,2.75,4,4.23,6,.72,1,1.48,1.92,2.28,2.83A16.46,16.46,0,0,0,71.18,23.66Z"/><path class="ac0f99d5-14d7-4a76-869e-76d3dfc2b029" d="M61.45,11.4a4.22,4.22,0,0,1-.87-1.07A4.13,4.13,0,0,1,60.11,9,4.06,4.06,0,0,1,61,10.11,4,4,0,0,1,61.45,11.4Z"/><path class="ac0f99d5-14d7-4a76-869e-76d3dfc2b029" d="M63.49,13.27a1.7,1.7,0,0,1-.85-.26,1.64,1.64,0,0,1-.61-.64,1.73,1.73,0,0,1,.85.26A1.71,1.71,0,0,1,63.49,13.27Z"/><path class="ac0f99d5-14d7-4a76-869e-76d3dfc2b029" d="M65.64,26.81c-1.81-2.31-3.48-4.72-5.17-7.12s-3.29-4.85-4.8-7.38c1.82,2.31,3.49,4.72,5.17,7.13S64.14,24.29,65.64,26.81Z"/><path class="ac0f99d5-14d7-4a76-869e-76d3dfc2b029" d="M62.48,29.28a6.24,6.24,0,0,1,.79,1,9.2,9.2,0,0,1,.63,1.1l-.07-.07a5.82,5.82,0,0,1,.45.4,3.61,3.61,0,0,1,.42.45,4.1,4.1,0,0,1-.56-.24c-.18-.1-.37-.18-.53-.29l0,0,0-.05a9.7,9.7,0,0,1-.62-1.08A6.08,6.08,0,0,1,62.48,29.28Z"/><path class="ecba3a27-1fb0-4c80-b6af-a813c2eff670" d="M62.48,29.28a35.54,35.54,0,0,1-5.88-1.91c-.86-.33-1.72-.68-2.54-1-2.6-1.07-4.74-2-4.74-2l3.47-4.16A26.62,26.62,0,0,1,62.48,29.28Z"/><path class="ac0f99d5-14d7-4a76-869e-76d3dfc2b029" d="M54.06,26.36c.24-.31.5-.59.75-.89l.07-.08.09.09c.49.48,1,.94,1.48,1.44s1,1,1.43,1.49c.94,1,1.85,2.05,2.69,3.16a40.53,40.53,0,0,1-3-2.86c-.49-.49-.94-1-1.41-1.52s-.9-1-1.35-1.57H55C54.66,25.87,54.37,26.12,54.06,26.36Z"/><polyline class="a249d2e9-71a1-4a02-a2f3-90e632e1fb32" points="21.1 87.12 21.5 89.42 23.22 89.95"/><path class="fd614946-4934-4229-b4a7-ba5ccf83ba9a" d="M39.9,75,29.76,86.36v1.53l-5.28,3.82L20,90.79,17,87l1.92-1.8L21,86.74l.06.38.63.16,1.45-2,.68.89.2-1.93a6.85,6.85,0,0,0-2.41.39c-.26.34-.88-1.19-.61-1.31A15.77,15.77,0,0,0,22.61,82l2.23.14,3.74-1.09L29.07,79l6.74-4.28Z"/><path class="ecba3a27-1fb0-4c80-b6af-a813c2eff670" d="M25.4,86.36a21.48,21.48,0,0,1,2.06-1.1l-.11.14c.14-.74.32-1.46.52-2.18a20.45,20.45,0,0,1,.71-2.13,18.28,18.28,0,0,1-.33,2.22c-.14.73-.31,1.46-.51,2.18l0,.1-.09,0A20.59,20.59,0,0,1,25.4,86.36Z"/><path class="bbe39b18-2d72-4c29-abf9-6b59c3ceda54" d="M21.1,87.12a2,2,0,0,1-.94,0,1.92,1.92,0,0,1-.84-.45,2,2,0,0,1,.95,0A2,2,0,0,1,21.1,87.12Z"/><path class="bbe39b18-2d72-4c29-abf9-6b59c3ceda54" d="M25.09,87.81a2.47,2.47,0,0,1-1.23-1.63,2.43,2.43,0,0,1,.8.68A2.36,2.36,0,0,1,25.09,87.81Z"/><path class="bbe39b18-2d72-4c29-abf9-6b59c3ceda54" d="M23.86,86.18a.74.74,0,0,1,.17.55.76.76,0,0,1-.27.51.76.76,0,0,1-.17-.55A.78.78,0,0,1,23.86,86.18Z"/><line class="a249d2e9-71a1-4a02-a2f3-90e632e1fb32" x1="24.07" y1="84.18" x2="24.06" y2="84.25"/><path class="bbe39b18-2d72-4c29-abf9-6b59c3ceda54" d="M26.93,82.31a2.65,2.65,0,0,1-2.09-.13A2.33,2.33,0,0,1,25.9,82,2.46,2.46,0,0,1,26.93,82.31Z"/><path class="bbe39b18-2d72-4c29-abf9-6b59c3ceda54" d="M25.4,84.18a1.13,1.13,0,0,1-.66.26,1.22,1.22,0,0,1-.68-.19,1.13,1.13,0,0,1,.66-.26A1.11,1.11,0,0,1,25.4,84.18Z"/><path class="bbe39b18-2d72-4c29-abf9-6b59c3ceda54" d="M85.52,68.47l-2.12-.7-3,3,2.25,2.32,2.07-.5L86,70.42Zm-2,2.46c-.61,0-1.06-.77-1.07-1.4s.43-1.45,1.07-1.47,1.17.72,1.19,1.39S84.22,71,83.57,70.93Z"/><path class="fd614946-4934-4229-b4a7-ba5ccf83ba9a" d="M84.76,69.45c0,.71-.54,1.5-1.19,1.48s-1.06-.77-1.07-1.4.43-1.45,1.07-1.47S84.74,68.78,84.76,69.45Z"/><path class="ac0f99d5-14d7-4a76-869e-76d3dfc2b029" d="M52.79,20.19a41,41,0,0,1,5.43,3.94,31.29,31.29,0,0,1,2.41,2.34,9.21,9.21,0,0,1,1.85,2.81,12.42,12.42,0,0,0-2.1-2.57c-.79-.77-1.6-1.53-2.46-2.24C56.25,23,54.5,21.63,52.79,20.19Z"/></g></g></svg>