<svg xmlns="http://www.w3.org/2000/svg" viewBox="0 0 89.36 87.61"><defs><style>.b6a04b28-874a-4724-9817-b078f997ef0b{fill:#b28b8c;}.a4a48050-0e74-400a-aac5-f523714e0881{fill:#838bc5;}.a3830f5d-c712-48d8-81bc-f68ef8e0b9a4{fill:none;stroke:#000;stroke-miterlimit:10;stroke-width:0.4px;}.e8120955-b33e-43c9-b18b-c0cf9fbf87ec{fill:#00bcbc;}</style></defs><title>Asset 4</title><g id="be00101d-125f-4698-a80c-564dbee62a5b" data-name="Layer 2"><g id="b3b46888-b5df-40c0-9379-031e6ebe115b" data-name="Owl"><path class="b6a04b28-874a-4724-9817-b078f997ef0b" d="M84.54,74.13h4.82l-4.11-1.85h3.52L76.16,65.49a87.93,87.93,0,0,0-5-16.55c-2.65-6.37-5.41-10.81-7-18.73a54.86,54.86,0,0,1-1-7.16c-.62,1.18-1.2,2.35-1.76,3.49l-.32.68-.64,1.35c-2.41-.32-5.42-.64-8.89-.8-1.76-.08-2.81-.08-6.74-.14l-2.33,0L46,34.24v3.37l4,1.63,1-6.75-.67,6.87-.31-.12-.77,5.38,3.05,2,.32.2a24.83,24.83,0,0,0,1.24-8.12,29.47,29.47,0,0,1-3.4,16.75l-.12.17c1.45.39,2.91.79,4.37,1.17l-3.24,8.77c.44.35.88.7,1.31,1.06l-.44,4.13,2,3.43,3.17-.53.2,0-1.51,8.5s4-1.61,6.57-2.9l6.37,8.43a88.24,88.24,0,0,0,.14-9.31L73,82.69s9.09,2,9.8,1.11c.28-.36-1.47-2.16-3.68-4.19,2.74,1,6.87,2.3,8.43,1.06a71.77,71.77,0,0,1-6.65-4.16c3.42.79,7.63,1.59,7.87.78C88.94,76.65,86.92,75.42,84.54,74.13Zm-31-38.57a14.62,14.62,0,0,1,.41,3.07A26,26,0,0,0,53.5,35.56Z"/><path class="a4a48050-0e74-400a-aac5-f523714e0881" d="M42.52,27.6l2.33,0c3.92.06,5,.06,6.74.14,3.47.15,6.48.48,8.89.8a24.42,24.42,0,0,1-5.89-1.78,24.75,24.75,0,0,1-4.34-2.49l-2.64-5.19,2.63-5.36a13.2,13.2,0,0,0-2.43-3.54A14.14,14.14,0,0,0,46.47,9a14.52,14.52,0,0,1-4,1c-3.6.2-4.83-1.07-7.6-1.44-2.33-.31-3.3.34-15.17,6.29-5.52,2.76-8.19,4.07-12.27,5a38.38,38.38,0,0,1-5.26.8c2.43.19,4.1.75,4.18,1.48,0,.14,0,.76-1.75,1.62.3.21.66.45,1.09.71A27.13,27.13,0,0,0,11,27l1.14.36.29.08.1-.14c0,.21-.05.43-.07.64l-.32-.09-1.55-.41L8.79,29l2.09.67.43.14,3.56-2h0l.37-.21c.35-.28.7-.53,1-.75l.25-.16c.13-.08.25-.16.37-.22a3.24,3.24,0,0,1,.35-.21l.33-.18c.5-.26.94-.46,1.28-.6l.23-.09h0l.09,0,.24-.08.06,0,.13,0-4.39,2.4-.27.22h0a15,15,0,0,0-4.5,6.33s5.22-3.49,9-6.16c1.16-.82,2.18-1.56,2.87-2.1l.81-.69a7.56,7.56,0,0,1-.81.69l-2.45,2.09-9.41,8,1.2,6,9.58-12.43L11.83,42.86l-.15-.74-3.9,5.06,2.16,7L27.33,30.3l-18.47,27,.94,9.57,5.13-6.58c5.24-9.57,14.55-18.77,15-19.16L14.93,60.28c-2,3.64-3.4,7.33-3.51,10.62L27.42,54c-6.19,6.69-14.08,15.56-15.51,18.89a2.76,2.76,0,0,0-.17.51l7-2.93L28,55.4,19.92,70l-1.2.5-5,8.12,9.7-1.35,9.43-16.84L18.16,87.61l12.67-4.85c.93-2.92,1.83-5.93,2.7-9-1.48,6.76-2.7,12.52-2.7,12.52l7.83-6.47L44,71.17s2.83-14.69,1.75-17-4.72-9-4.72-9L43.5,39l-2.62-9.25,1.18-2.12ZM27.47,53.94c2.72-2.93,5.11-5.44,6.47-6.86Zm11.05.25C38.08,60,36.65,63,35.15,67.72q2-7.81,3.47-15.18C38.61,52.92,38.58,53.49,38.52,54.19Z"/><path class="a3830f5d-c712-48d8-81bc-f68ef8e0b9a4" d="M17.58,26.18l-.33.17-.35.21"/><path class="a3830f5d-c712-48d8-81bc-f68ef8e0b9a4" d="M16.54,26.78l-.25.16"/><path class="e8120955-b33e-43c9-b18b-c0cf9fbf87ec" d="M19.64,25.29c-.66.37-1.33.79-2.05,1.25s-1.49.9-2.24,1.32l-.22-.32A16.49,16.49,0,0,1,17,26.3a9.41,9.41,0,0,1,1-.47c.35-.14.69-.29,1-.4h0l.09,0h0l.31-.07h0Zm0,0-.13.05h0l-.28.13h0l-.09,0h0c-.34.16-.65.36-1,.52a9.15,9.15,0,0,0-1,.55,20.06,20.06,0,0,0-1.8,1.26l-.21-.33c.71-.38,1.4-.74,2.14-1.08S18.83,25.72,19.64,25.29Z"/><path class="e8120955-b33e-43c9-b18b-c0cf9fbf87ec" d="M22.34,26c-.35.3-.7.66-1.08,1.06s-.83.8-1.24,1.18l-.05,0H19.9l-.43,0-.67,0,.56-.39c.5-.35,1-.73,1.56-1S21.92,26.28,22.34,26Zm0,0c-.54.4-1,.81-1.46,1.2s-.85.72-1.3,1.06l-.12-.35h.43l-.12.05c.4-.32.76-.62,1.21-.92A13.93,13.93,0,0,0,22.34,26Z"/><line class="a3830f5d-c712-48d8-81bc-f68ef8e0b9a4" x1="27.47" y1="53.94" x2="27.42" y2="53.99"/><line class="a3830f5d-c712-48d8-81bc-f68ef8e0b9a4" x1="27.47" y1="53.94" x2="27.42" y2="53.99"/><path class="a3830f5d-c712-48d8-81bc-f68ef8e0b9a4" d="M35,46l.06-.07h0l.06-.06"/><line class="a3830f5d-c712-48d8-81bc-f68ef8e0b9a4" x1="29.89" y1="41.11" x2="29.88" y2="41.12"/><path class="e8120955-b33e-43c9-b18b-c0cf9fbf87ec" d="M17,20.76a37.11,37.11,0,0,1-2,3.36,35.74,35.74,0,0,1-2.36,3.14,34.53,34.53,0,0,1,2-3.36A35.74,35.74,0,0,1,17,20.76Z"/><path class="e8120955-b33e-43c9-b18b-c0cf9fbf87ec" d="M32.45,21.57a43.56,43.56,0,0,1,2.33-3.84l.19-.28.36.14c1.48.55,2.93,1.18,4.37,1.82l.17.07.09.15c1.21,1.93,2.35,3.89,3.37,5.93l.09.18-.08.11c-.41.59-.83,1.18-1.28,1.74.24-.68.51-1.35.79-2v.28c-1.4-1.8-2.68-3.68-3.9-5.59l.26.22c-1.44-.66-2.87-1.33-4.26-2.07l.55-.14C34.54,19.41,33.54,20.52,32.45,21.57Z"/><path class="e8120955-b33e-43c9-b18b-c0cf9fbf87ec" d="M40.88,29.71a5.94,5.94,0,0,1-2.5,4.53,5.39,5.39,0,0,1,.73-2.56A5.52,5.52,0,0,1,40.88,29.71Z"/><path class="a3830f5d-c712-48d8-81bc-f68ef8e0b9a4" d="M53.91,38.65v0"/><path class="a3830f5d-c712-48d8-81bc-f68ef8e0b9a4" d="M53.48,35.45v0a.24.24,0,0,1,0,.08"/><path class="a3830f5d-c712-48d8-81bc-f68ef8e0b9a4" d="M53.91,38.65v0"/><path class="e8120955-b33e-43c9-b18b-c0cf9fbf87ec" d="M46,34.24a13,13,0,0,1,0-4.55,13,13,0,0,1,0,4.55Z"/><path class="e8120955-b33e-43c9-b18b-c0cf9fbf87ec" d="M55,68.34a5.13,5.13,0,0,1-1.22-.73,5.39,5.39,0,0,1-1-1,4.54,4.54,0,0,1,1.22.73A4.86,4.86,0,0,1,55,68.34Z"/><path class="e8120955-b33e-43c9-b18b-c0cf9fbf87ec" d="M58.33,73.53a.39.39,0,0,1-.29.22.37.37,0,0,1-.32-.17.39.39,0,0,1,.29-.22A.37.37,0,0,1,58.33,73.53Z"/><path class="e8120955-b33e-43c9-b18b-c0cf9fbf87ec" d="M64.9,77.94a2.3,2.3,0,0,1-.93.85,3.21,3.21,0,0,1-1.19.39,4.62,4.62,0,0,1,1-.74A11.48,11.48,0,0,1,64.9,77.94Z"/><path class="e8120955-b33e-43c9-b18b-c0cf9fbf87ec" d="M57.72,73.58l.51-3.41v0A29.55,29.55,0,0,1,59,64.88c.38-1.75.86-3.47,1.41-5.17a85.42,85.42,0,0,1,3.89-10c-.64,1.66-1.24,3.34-1.84,5s-1.17,3.37-1.69,5.07-1,3.4-1.43,5.13a37.4,37.4,0,0,0-.9,5.25h0Z"/><path class="e8120955-b33e-43c9-b18b-c0cf9fbf87ec" d="M68.33,72.08a14.92,14.92,0,0,1,.77,3.06c.06.53.14,1,.18,1.57a14.06,14.06,0,0,1,0,1.59c-.25-1-.39-2.06-.58-3.09S68.42,73.13,68.33,72.08Z"/><path class="e8120955-b33e-43c9-b18b-c0cf9fbf87ec" d="M62.78,79.18c-.81-.93-1.59-1.89-2.36-2.85l-.05-.06,0-.08c.28-1.52.56-3,.9-4.55s.68-3,1.08-4.51c-.2,1.53-.44,3.06-.73,4.58s-.6,3-.93,4.55l0-.14C61.4,77.13,62.11,78.14,62.78,79.18Z"/><path class="e8120955-b33e-43c9-b18b-c0cf9fbf87ec" d="M79.11,79.61c-1.38-1-2.66-2.08-4-3.16S72.64,74.22,71.47,73c1.38,1,2.66,2.07,4,3.16S78,78.38,79.11,79.61Z"/><path class="e8120955-b33e-43c9-b18b-c0cf9fbf87ec" d="M69.29,78.3a11.07,11.07,0,0,1-1.54-1.52A11,11,0,0,1,66.52,75a12.17,12.17,0,0,1,2.77,3.29Z"/><path class="e8120955-b33e-43c9-b18b-c0cf9fbf87ec" d="M80.89,76.51A7.89,7.89,0,0,1,79,75.26a7.67,7.67,0,0,1-.77-.84,2.36,2.36,0,0,1-.5-1,4.48,4.48,0,0,0,.73.83c.26.25.52.51.81.74C79.81,75.47,80.39,75.93,80.89,76.51Z"/><path class="e8120955-b33e-43c9-b18b-c0cf9fbf87ec" d="M79.11,79.61a4.87,4.87,0,0,1-1.37-.37,4.76,4.76,0,0,1-1.22-.73,5.2,5.2,0,0,1,1.38.37A4.59,4.59,0,0,1,79.11,79.61Z"/><path class="e8120955-b33e-43c9-b18b-c0cf9fbf87ec" d="M84.54,74.13A36.27,36.27,0,0,1,81,72.45c-.57-.32-1.15-.64-1.7-1a6.85,6.85,0,0,1-1.53-1.26,15,15,0,0,0,1.69,1l1.73.92A36.33,36.33,0,0,1,84.54,74.13Z"/><path class="e8120955-b33e-43c9-b18b-c0cf9fbf87ec" d="M80.89,76.51a12.8,12.8,0,0,1-2.23-.36,11.78,11.78,0,0,1-2.14-.74,12.65,12.65,0,0,1,2.23.36A11.07,11.07,0,0,1,80.89,76.51Z"/><path class="e8120955-b33e-43c9-b18b-c0cf9fbf87ec" d="M76.16,65.49A4.85,4.85,0,0,1,74.84,65a4.6,4.6,0,0,1-1.14-.84,5,5,0,0,1,1.32.49A4.86,4.86,0,0,1,76.16,65.49Z"/><path class="e8120955-b33e-43c9-b18b-c0cf9fbf87ec" d="M84.54,74.13a2.17,2.17,0,0,1-1,.2,2.12,2.12,0,0,1-.94-.2,2.26,2.26,0,0,1,.94-.19A2.3,2.3,0,0,1,84.54,74.13Z"/><path class="e8120955-b33e-43c9-b18b-c0cf9fbf87ec" d="M76.16,65.49c.21.66.37,1.34.53,2l-.09-.12c.76.4,1.51.8,2.23,1.24A25.38,25.38,0,0,1,81,70a24.34,24.34,0,0,1-2.31-1.09c-.76-.39-1.49-.82-2.22-1.25l-.07-.05v-.07C76.28,66.87,76.19,66.19,76.16,65.49Z"/><path class="e8120955-b33e-43c9-b18b-c0cf9fbf87ec" d="M12.55,27.26a5.09,5.09,0,0,1-.06-.77h0v0a9.7,9.7,0,0,1,.62-1.3A6.36,6.36,0,0,1,14,24a6.9,6.9,0,0,1-.5,1.36,8.56,8.56,0,0,1-.71,1.25v0A5.2,5.2,0,0,1,12.55,27.26Z"/><path class="b6a04b28-874a-4724-9817-b078f997ef0b" d="M12.55,27.26c0,.21-.05.43-.07.64l-.32-.09-1.55-.41L8.79,29l2.09.67.43.14h0l-.72.3-1.79.74L7.38,32.71,6.07,35.46l-.91-1.33.7-1.52,1-3L5.36,31.09l-3.54,3L3.13,32l-.9.37-.61.24-.51-.91,2-.71V29.64L.91,31,2.12,29,0,28.3l2.32-.38V27l2.28.45L2.32,26l.81.19,1-1.17,1.49-.63A27.13,27.13,0,0,0,11,27l1.14.36.29.08Z"/><path class="e8120955-b33e-43c9-b18b-c0cf9fbf87ec" d="M66.06,16.33a21.31,21.31,0,0,1-1.25,3.75,22.21,22.21,0,0,1-1.61,3,1.36,1.36,0,0,1,0-.2l-1.74,3.69-.32.68-.64,1.35a24.42,24.42,0,0,1-5.89-1.78,24.75,24.75,0,0,1-4.34-2.49l-2.64-5.19c.88-1.79,1.76-3.57,2.63-5.36a13.2,13.2,0,0,0-2.43-3.54A14.14,14.14,0,0,0,46.47,9c-1.16-1-2.09-1.53-2.6-2.82a5.19,5.19,0,0,1-.2-2.83c2,1,3.59,1.81,4.65,2.38a14.36,14.36,0,0,0,3.84,1.76,7.9,7.9,0,0,0,.8.14,9.25,9.25,0,0,0,3.25-.18h0a6.71,6.71,0,0,0,1.71-3A6.85,6.85,0,0,0,57.52,0a22,22,0,0,1,3.54,5.76c.46,1.13,1.35,2.38,2.22,4.15A67.08,67.08,0,0,1,66.06,16.33Z"/></g></g></svg>