<svg xmlns="http://www.w3.org/2000/svg" viewBox="0 0 365.75 72"><defs><style>.f4b1ecf1-70dc-48e8-85bc-3ace589ec7eb{fill:#9d2b48;}.b719a9ef-009d-4c10-be84-cf026f043d5b{fill:#e1b896;}</style></defs><title>name</title><g id="bee12371-9f76-4aab-b1e8-0ccde2c04e3b" data-name="Layer 2"><g id="e8f4134c-5913-4730-840e-913c18a170aa" data-name="Layer 3"><path class="f4b1ecf1-70dc-48e8-85bc-3ace589ec7eb" d="M71.86,29.53,49.57,42.4V67.22L36.28,72,22.22,67.43v-25L0,29.53V10.2L20.46,0V17.72l15.47,8.93,15.4-8.93V0L71.86,11.88Z"/><path class="f4b1ecf1-70dc-48e8-85bc-3ace589ec7eb" d="M144.28,18V54L113.06,72,81.91,54V18L113.06,0Zm-15.4,8.86-15.82-9.14L97.24,26.86V45.07l15.82,9.21,15.82-9.21Z"/><path class="f4b1ecf1-70dc-48e8-85bc-3ace589ec7eb" d="M214.52,53.51,183.59,71.37l-8-4.64V21.38l-8.37,4.85v37.4L152.72,72V17.86L183.59,0l8,4.64V50L200,45.14V9L214.52.63Z"/><path class="f4b1ecf1-70dc-48e8-85bc-3ace589ec7eb" d="M285.61,18.21V54.56L261.77,72l.07-20.53H246V71.72L222.61,54.56V18.21L254.11,0ZM261.84,29.74l-7.87-6-7.95,6v5.91h15.82Z"/><path class="f4b1ecf1-70dc-48e8-85bc-3ace589ec7eb" d="M311.41,28h45.14V54L325.41,72,294.26,54v-8h17.15l14,6.12,14-8.08v-.36H294.26V18L325.41,0l31.14,18v8.93H339.4l-14-7.1-14,8.08Z"/><path class="b719a9ef-009d-4c10-be84-cf026f043d5b" d="M81.05,29.53,58.76,42.4V67.22L45.47,72,31.41,67.43v-25L9.19,29.53V10.2L29.65,0V17.72l15.47,8.93,15.4-8.93V0L81.05,11.88Z"/><path class="b719a9ef-009d-4c10-be84-cf026f043d5b" d="M153.47,18V54L122.25,72,91.11,54V18L122.25,0Zm-15.4,8.86-15.82-9.14-15.82,9.14V45.07l15.82,9.21,15.82-9.21Z"/><path class="b719a9ef-009d-4c10-be84-cf026f043d5b" d="M223.71,53.51,192.78,71.37l-8-4.64V21.38l-8.37,4.85v37.4L161.91,72V17.86L192.78,0l8,4.64V50l8.44-4.85V9L223.71.63Z"/><path class="b719a9ef-009d-4c10-be84-cf026f043d5b" d="M294.8,18.21V54.56L271,72,271,51.47H255.21V71.72L231.8,54.56V18.21L263.3,0ZM271,29.74l-7.88-6-8,6v5.91H271Z"/><path class="b719a9ef-009d-4c10-be84-cf026f043d5b" d="M320.61,28h45.14V54L334.6,72,303.45,54v-8h17.16l14,6.12,14-8.08v-.36H303.45V18L334.6,0l31.15,18v8.93H348.59l-14-7.1-14,8.08Z"/></g></g></svg>